<?xml version="1.0" standalone="no"?>
<!DOCTYPE svg PUBLIC "-//W3C//DTD SVG 20010904//EN"
 "http://www.w3.org/TR/2001/REC-SVG-20010904/DTD/svg10.dtd">
<svg version="1.0" xmlns="http://www.w3.org/2000/svg"
 width="512.000000pt" height="512.000000pt" viewBox="0 0 512.000000 512.000000"
 preserveAspectRatio="xMidYMid meet">
<metadata>
Created by potrace 1.14, written by Peter Selinger 2001-2017
</metadata>
<g transform="translate(0.000000,512.000000) scale(0.100000,-0.100000)"
fill="#000000" stroke="none">
<path d="M2367 5110 c-513 -40 -1010 -236 -1407 -556 -1118 -901 -1279 -2541
-357 -3639 411 -489 992 -807 1637 -896 144 -20 526 -18 675 4 563 84 1059
332 1455 729 404 405 650 906 732 1488 17 125 17 515 0 640 -57 404 -211 804
-434 1126 -413 598 -1061 997 -1768 1088 -149 19 -396 27 -533 16z m-329 -787
l2 -213 520 0 520 0 2 213 3 212 228 3 227 2 0 -215 0 -215 325 0 325 0 0
-1595 0 -1595 -1630 0 -1630 0 0 1595 0 1595 320 0 320 0 0 208 c0 115 3 212
7 216 4 3 108 5 232 4 l226 -3 3 -212z"/>
<path d="M2210 2640 l0 -150 105 0 105 0 0 -505 0 -505 150 0 150 0 0 655 0
655 -255 0 -255 0 0 -150z"/>
</g>
</svg>
